<svg width="28" height="28" viewBox="0 0 28 28" fill="none" xmlns="http://www.w3.org/2000/svg">
<g clip-path="url(#clip0_12_47)">
<path d="M27.7504 20.2617C27.6751 20.1356 27.2096 19.1241 24.9694 17.0449C22.6243 14.8678 22.9393 15.2213 25.764 11.4568C27.4844 9.16409 28.1722 7.76399 27.9569 7.16545C27.7521 6.5949 26.4868 6.74541 26.4868 6.74541L22.2795 6.76992C22.2795 6.76992 21.968 6.72791 21.7352 6.86617C21.5094 7.00268 21.3642 7.31771 21.3642 7.31771C21.3642 7.31771 20.6974 9.09234 19.8083 10.6009C17.9339 13.7844 17.1831 13.9524 16.8768 13.7547C16.1645 13.2944 16.3431 11.903 16.3431 10.916C16.3431 7.83049 16.8103 6.54415 15.4312 6.21163C14.9727 6.10137 14.6367 6.02786 13.4658 6.01561C11.9642 5.99986 10.6919 6.02086 9.97259 6.37264C9.49305 6.60715 9.12377 7.13044 9.34954 7.1602C9.62781 7.19695 10.2579 7.32996 10.5921 7.78499C11.0244 8.37128 11.0087 9.69088 11.0087 9.69088C11.0087 9.69088 11.2572 13.3224 10.4294 13.7739C9.86058 14.0837 9.08177 13.4519 7.4104 10.5624C6.55459 9.08359 5.90704 7.44722 5.90704 7.44722C5.90704 7.44722 5.78278 7.14269 5.56052 6.97993C5.291 6.78217 4.91297 6.71916 4.91297 6.71916L0.912177 6.74366C0.912177 6.74366 0.311883 6.76117 0.0913668 7.02194C-0.104647 7.2547 0.0756157 7.73424 0.0756157 7.73424C0.0756157 7.73424 3.20834 15.062 6.7541 18.7565C10.0076 22.143 13.7004 21.9208 13.7004 21.9208H15.3735C15.3735 21.9208 15.8793 21.8648 16.1365 21.5865C16.3746 21.331 16.3658 20.8514 16.3658 20.8514C16.3658 20.8514 16.3326 18.606 17.3756 18.2753C18.403 17.9497 19.7225 20.4454 21.1209 21.4062C22.178 22.1325 22.9813 21.9733 22.9813 21.9733L26.7213 21.9208C26.7213 21.9208 28.6779 21.8 27.7504 20.2617Z" fill="white"/>
</g>
<defs>
<clipPath id="clip0_12_47">
<rect width="28" height="28" fill="white"/>
</clipPath>
</defs>
</svg>
